<svg width="731" height="156" viewBox="0 0 731 156" fill="none" xmlns="http://www.w3.org/2000/svg">
<path d="M83.3366 58.0077C82.3684 58.3734 81.7233 59.2979 81.7233 60.3303C81.7233 61.3626 82.3684 62.2876 83.3366 62.6533L95.488 67.2126L100.048 79.3646C100.414 80.3322 101.338 80.9773 102.37 80.9773C103.403 80.9773 104.328 80.3322 104.693 79.3646L109.253 67.2126L121.405 62.6533C122.372 62.2876 123.017 61.3626 123.017 60.3303C123.017 59.2979 122.372 58.3734 121.405 58.0077L109.253 53.4479L104.693 41.2964C104.328 40.3285 103.403 39.6833 102.37 39.6833C101.338 39.6833 100.414 40.3285 100.048 41.2964L95.488 53.4479L83.3366 58.0077ZM57.0116 55.4484C56.4523 54.2224 55.2263 53.4479 53.8929 53.4479C52.5596 53.4479 51.3336 54.2224 50.7743 55.4484L39.4185 79.9665L14.9001 91.3009C13.6742 91.8602 12.8999 93.0861 12.8999 94.441C12.8999 95.796 13.6742 97.0004 14.9001 97.5597L39.44 108.894L50.7527 133.413C51.312 134.638 52.538 135.413 53.8714 135.413C55.2047 135.413 56.4307 134.638 56.99 133.413L68.3243 108.872L92.864 97.5381C94.09 96.9788 94.8645 95.7528 94.8645 94.4195C94.8645 93.0861 94.09 91.8602 92.864 91.3009L68.3459 79.9881L57.0116 55.4484ZM95.488 122.271L83.3366 126.831C82.3684 127.197 81.7233 128.121 81.7233 129.154C81.7233 130.186 82.3684 131.111 83.3366 131.477L95.488 136.036L100.048 148.188C100.414 149.156 101.338 149.801 102.37 149.801C103.403 149.801 104.328 149.156 104.693 148.188L109.253 136.036L121.405 131.477C122.372 131.111 123.017 130.186 123.017 129.154C123.017 128.121 122.372 127.197 121.405 126.831L109.253 122.271L104.693 110.12C104.328 109.152 103.403 108.507 102.37 108.507C101.338 108.507 100.414 109.152 100.048 110.12L95.488 122.271Z" fill="url(#paint0_linear_110_44)"/>
<g filter="url(#filter0_d_110_44)">
<path d="M66.5507 101.649C33.6801 113.065 8.60788 126.853 10.5504 132.447C12.4928 138.04 40.7144 133.319 73.585 121.903C106.456 110.488 131.528 96.699 129.585 91.1059C127.643 85.5128 99.4213 90.2331 66.5507 101.649Z" stroke="url(#paint1_linear_110_44)" stroke-width="0.549291"/>
<g style="mix-blend-mode:screen" filter="url(#filter1_f_110_44)">
<path d="M66.5507 101.649C33.6801 113.065 8.60788 126.853 10.5504 132.447C12.4928 138.04 40.7144 133.319 73.585 121.903C106.456 110.488 131.528 96.699 129.585 91.1059C127.643 85.5128 99.4213 90.2331 66.5507 101.649Z" stroke="url(#paint2_linear_110_44)" stroke-width="0.549291"/>
</g>
</g>
<g filter="url(#filter2_d_110_44)">
<path d="M120.326 9.60343C121.266 9.60343 122.028 8.84131 122.028 7.9012C122.028 6.96109 121.266 6.19897 120.326 6.19897C119.386 6.19897 118.624 6.96109 118.624 7.9012C118.624 8.84131 119.386 9.60343 120.326 9.60343Z" fill="url(#paint3_linear_110_44)"/>
</g>
<g filter="url(#filter3_d_110_44)">
<path d="M151.559 39.2456C151.956 39.2456 152.277 38.9241 152.277 38.5275C152.277 38.1308 151.956 37.8093 151.559 37.8093C151.162 37.8093 150.841 38.1308 150.841 38.5275C150.841 38.9241 151.162 39.2456 151.559 39.2456Z" fill="url(#paint4_linear_110_44)"/>
</g>
<g filter="url(#filter4_d_110_44)">
<path d="M33.1154 57.3205C34.1443 57.3205 34.9784 56.4864 34.9784 55.4575C34.9784 54.4286 34.1443 53.5945 33.1154 53.5945C32.0865 53.5945 31.2524 54.4286 31.2524 55.4575C31.2524 56.4864 32.0865 57.3205 33.1154 57.3205Z" fill="url(#paint5_linear_110_44)"/>
</g>
<g filter="url(#filter5_d_110_44)">
<path d="M13.927 111.889C14.9559 111.889 15.79 111.055 15.79 110.026C15.79 108.997 14.9559 108.163 13.927 108.163C12.8981 108.163 12.064 108.997 12.064 110.026C12.064 111.055 12.8981 111.889 13.927 111.889Z" fill="url(#paint6_linear_110_44)"/>
</g>
<g filter="url(#filter6_d_110_44)">
<path d="M124.231 126.869C125.26 126.869 126.094 126.035 126.094 125.006C126.094 123.977 125.26 123.143 124.231 123.143C123.202 123.143 122.368 123.977 122.368 125.006C122.368 126.035 123.202 126.869 124.231 126.869Z" fill="url(#paint7_linear_110_44)"/>
</g>
<g filter="url(#filter7_d_110_44)">
<path d="M36.9847 95.3225C37.3813 95.3225 37.7029 95.001 37.7029 94.6044C37.7029 94.2077 37.3813 93.8862 36.9847 93.8862C36.5881 93.8862 36.2666 94.2077 36.2666 94.6044C36.2666 95.001 36.5881 95.3225 36.9847 95.3225Z" fill="url(#paint8_linear_110_44)"/>
</g>
<g filter="url(#filter8_d_110_44)">
<path d="M64.4986 37.351C65.1218 37.351 65.6271 36.8457 65.6271 36.2225C65.6271 35.5992 65.1218 35.094 64.4986 35.094C63.8754 35.094 63.3701 35.5992 63.3701 36.2225C63.3701 36.8457 63.8754 37.351 64.4986 37.351Z" fill="url(#paint9_linear_110_44)"/>
</g>
<g filter="url(#filter9_d_110_44)">
<path d="M117.614 63.6924C117.103 63.619 116.737 63.1827 116.742 62.6403C116.719 57.7984 116.167 57.0459 111.68 55.8741C111.164 55.7346 110.822 55.2368 110.895 54.7256C110.969 54.2076 111.428 53.8387 111.965 53.836C116.588 53.8539 117.228 53.3808 118.731 48.7646C118.898 48.2526 119.357 47.9346 119.862 48.0071C120.38 48.0814 120.738 48.5164 120.747 49.061C120.758 53.8938 121.31 54.6463 125.789 55.8172C126.319 55.9654 126.656 56.4485 126.581 56.9734C126.508 57.4845 126.062 57.8553 125.511 57.8562C120.88 57.8516 120.247 58.3187 118.759 62.9367C118.576 63.4534 118.111 63.7635 117.614 63.6924Z" fill="url(#paint10_linear_110_44)"/>
</g>
<g filter="url(#filter10_d_110_44)">
<path d="M22.0121 88.38C21.6416 88.436 21.2969 88.2093 21.1873 87.8313C20.1598 84.4736 19.6194 84.0662 16.2591 84.1891C15.8713 84.2006 15.5299 83.9258 15.474 83.5559C15.4174 83.1806 15.6591 82.8287 16.0314 82.7145C19.2454 81.7615 19.5915 81.2995 19.6711 77.7803C19.6806 77.3894 19.9328 77.0728 20.2982 77.0177C20.6738 76.9608 21.0134 77.1884 21.1333 77.5646C22.1498 80.9186 22.6902 81.3261 26.0453 81.204C26.4442 81.1962 26.7789 81.4614 26.8363 81.8418C26.8921 82.212 26.6607 82.5626 26.2782 82.6778C23.0605 83.6417 22.7189 84.0983 22.6495 87.6161C22.6305 88.0134 22.3724 88.3254 22.0121 88.38Z" fill="url(#paint11_linear_110_44)"/>
</g>
<path d="M175.84 128C171.061 128 167.648 127.061 165.6 125.184C163.552 123.307 162.528 120.619 162.528 117.12C162.528 115.413 162.656 112.512 162.912 108.416C163.168 104.235 163.509 99.4987 163.936 94.208C164.363 88.9173 164.789 83.328 165.216 77.44C165.643 71.552 166.069 66.0053 166.496 60.8C166.923 55.5947 167.264 51.0293 167.52 47.104C167.776 43.1787 167.904 40.4907 167.904 39.04C167.904 37.76 168.587 37.12 169.952 37.12H176.992C182.197 37.12 185.696 38.2293 187.488 40.448C189.28 42.6667 190.176 45.952 190.176 50.304C190.176 50.7307 190.091 52.096 189.92 54.4C189.835 56.704 189.664 59.6053 189.408 63.104C189.152 66.6027 188.853 70.528 188.512 74.88C188.256 79.1467 187.957 83.5413 187.616 88.064C187.36 92.5867 187.061 97.024 186.72 101.376C186.464 105.643 186.208 109.525 185.952 113.024C185.696 116.523 185.483 119.467 185.312 121.856C185.141 124.16 185.013 125.568 184.928 126.08C184.843 126.763 184.672 127.275 184.416 127.616C184.16 127.872 183.648 128 182.88 128H175.84ZM223.642 104.96C223.386 108.885 223.087 112.64 222.746 116.224C222.405 119.723 222.149 122.795 221.978 125.44C221.893 126.464 221.679 127.147 221.338 127.488C220.997 127.829 220.271 128 219.162 128H214.554C211.909 128 209.733 127.744 208.026 127.232C206.405 126.635 205.082 125.824 204.058 124.8C203.119 123.776 202.437 122.539 202.01 121.088C201.669 119.552 201.498 117.803 201.498 115.84C201.498 114.56 201.541 112.768 201.626 110.464C201.797 108.075 202.053 104.832 202.394 100.736C202.735 96.5547 203.119 91.3067 203.546 84.992C204.058 78.592 204.655 70.6987 205.338 61.312C205.423 59.4347 205.637 58.3253 205.978 57.984C206.234 57.728 206.917 57.6 208.026 57.6H213.018C215.578 57.6 217.669 57.8987 219.29 58.496C220.911 59.0933 222.234 59.8613 223.258 60.8C224.282 61.7387 225.007 62.848 225.434 64.128C225.861 65.408 226.117 66.7307 226.202 68.096C228.677 63.488 231.493 60.3733 234.65 58.752C237.807 57.1307 241.519 56.32 245.786 56.32C248.09 56.32 250.309 56.5333 252.442 56.96C254.575 57.3867 256.495 58.112 258.202 59.136C259.909 60.16 261.359 61.5253 262.554 63.232C263.749 64.8533 264.602 66.944 265.114 69.504C267.759 64.5547 270.661 61.1413 273.818 59.264C276.975 57.3013 280.943 56.32 285.722 56.32C288.367 56.32 290.885 56.6187 293.274 57.216C295.749 57.728 297.882 58.6667 299.674 60.032C301.466 61.3973 302.874 63.2747 303.898 65.664C305.007 67.968 305.562 70.8693 305.562 74.368C305.562 77.0133 305.434 80.256 305.178 84.096C304.922 87.936 304.623 92.1173 304.282 96.64C303.941 101.077 303.557 105.685 303.13 110.464C302.703 115.157 302.362 119.68 302.106 124.032C302.021 124.971 301.935 125.696 301.85 126.208C301.765 126.72 301.594 127.104 301.338 127.36C301.167 127.616 300.869 127.787 300.442 127.872C300.015 127.957 299.418 128 298.65 128H294.554C291.823 128 289.605 127.744 287.898 127.232C286.191 126.72 284.869 125.995 283.93 125.056C282.991 124.117 282.309 122.965 281.882 121.6C281.541 120.149 281.37 118.528 281.37 116.736C281.37 115.627 281.413 114.048 281.498 112C281.669 109.952 281.839 107.733 282.01 105.344C282.266 102.955 282.479 100.48 282.65 97.92C282.906 95.36 283.119 93.0133 283.29 90.88C283.546 88.6613 283.717 86.7413 283.802 85.12C283.973 83.4987 284.058 82.432 284.058 81.92C284.058 79.7013 283.589 77.7387 282.65 76.032C281.797 74.3253 280.09 73.472 277.53 73.472C275.311 73.472 273.391 74.1973 271.77 75.648C270.149 77.0987 268.783 79.104 267.674 81.664C266.565 84.224 265.669 87.2533 264.986 90.752C264.303 94.2507 263.834 98.048 263.578 102.144C263.407 104.789 263.194 107.819 262.938 111.232C262.682 114.645 262.383 118.912 262.042 124.032C261.957 124.971 261.871 125.696 261.786 126.208C261.701 126.72 261.53 127.104 261.274 127.36C261.103 127.616 260.805 127.787 260.378 127.872C259.951 127.957 259.354 128 258.586 128H254.49C251.759 128 249.541 127.744 247.834 127.232C246.127 126.72 244.805 125.995 243.866 125.056C242.927 124.117 242.245 122.965 241.818 121.6C241.477 120.149 241.306 118.528 241.306 116.736C241.306 115.029 241.434 112.555 241.69 109.312C242.031 105.984 242.33 102.571 242.586 99.072C242.927 95.488 243.226 92.1173 243.482 88.96C243.823 85.7173 243.994 83.3707 243.994 81.92C243.994 79.7013 243.525 77.7387 242.586 76.032C241.733 74.3253 240.026 73.472 237.466 73.472C235.162 73.472 233.199 74.3253 231.578 76.032C229.957 77.7387 228.591 80.0427 227.482 82.944C226.458 85.76 225.605 89.088 224.922 92.928C224.325 96.768 223.898 100.779 223.642 104.96ZM313.158 112.256C313.158 104.576 316.614 98.56 323.526 94.208C330.438 89.856 340.635 87.5093 354.118 87.168C354.203 86.2293 354.246 85.4613 354.246 84.864C354.331 84.1813 354.374 83.3707 354.374 82.432C354.374 79.7013 353.862 77.5253 352.838 75.904C351.814 74.2827 349.681 73.472 346.438 73.472C344.646 73.472 343.195 73.728 342.086 74.24C340.977 74.752 340.081 75.4773 339.398 76.416C338.715 77.2693 338.161 78.336 337.734 79.616C337.307 80.896 336.923 82.304 336.582 83.84C336.411 84.608 336.027 85.12 335.43 85.376C334.833 85.5467 333.894 85.632 332.614 85.632C323.91 85.632 319.558 82.3467 319.558 75.776C319.558 73.1307 320.155 70.6133 321.35 68.224C322.63 65.8347 324.465 63.7867 326.854 62.08C329.329 60.288 332.401 58.88 336.07 57.856C339.739 56.832 344.006 56.32 348.87 56.32C358.342 56.32 365.211 58.2827 369.478 62.208C373.745 66.1333 375.878 71.68 375.878 78.848C375.878 79.7867 375.75 81.4933 375.494 83.968C375.323 86.3573 375.067 88.9173 374.726 91.648C374.47 94.2933 374.214 96.8107 373.958 99.2C373.787 101.589 373.702 103.253 373.702 104.192C373.702 106.325 374.086 107.861 374.854 108.8C375.622 109.653 376.475 110.251 377.414 110.592C378.438 110.933 379.334 111.189 380.102 111.36C380.87 111.531 381.254 111.957 381.254 112.64C381.254 114.517 380.998 116.437 380.486 118.4C379.974 120.363 379.121 122.155 377.926 123.776C376.817 125.397 375.238 126.72 373.19 127.744C371.227 128.768 368.795 129.28 365.894 129.28C361.798 129.28 358.726 128.299 356.678 126.336C354.63 124.373 353.265 121.643 352.582 118.144C350.534 121.131 347.846 123.733 344.518 125.952C341.275 128.171 337.009 129.28 331.718 129.28C329.158 129.28 326.726 128.981 324.422 128.384C322.203 127.787 320.241 126.805 318.534 125.44C316.913 124.075 315.59 122.325 314.566 120.192C313.627 117.973 313.158 115.328 313.158 112.256ZM352.966 97.664C350.747 97.664 348.571 97.8347 346.438 98.176C344.305 98.5173 342.385 99.072 340.678 99.84C339.057 100.523 337.734 101.461 336.71 102.656C335.686 103.851 335.174 105.301 335.174 107.008C335.174 108.971 335.771 110.336 336.966 111.104C338.246 111.872 339.611 112.256 341.062 112.256C342.427 112.256 343.793 111.957 345.158 111.36C346.523 110.763 347.718 109.867 348.742 108.672C349.851 107.392 350.79 105.856 351.558 104.064C352.326 102.272 352.795 100.139 352.966 97.664ZM430.979 112.896C428.846 116.736 426.243 119.595 423.171 121.472C420.099 123.264 416.259 124.16 411.651 124.16C408.152 124.16 404.952 123.605 402.051 122.496C399.15 121.387 396.675 119.637 394.627 117.248C392.579 114.859 390.958 111.872 389.763 108.288C388.654 104.619 388.099 100.267 388.099 95.232C388.099 91.136 388.526 86.8267 389.379 82.304C390.232 77.696 391.768 73.472 393.987 69.632C396.291 65.792 399.406 62.6347 403.331 60.16C407.256 57.6 412.291 56.32 418.435 56.32C420.995 56.32 423.171 56.6187 424.963 57.216C426.84 57.728 428.419 58.4533 429.699 59.392C431.064 60.3307 432.131 61.44 432.899 62.72C433.752 64 434.392 65.3653 434.819 66.816C434.819 66.9013 434.819 66.6027 434.819 65.92C434.904 65.152 434.99 64.2987 435.075 63.36C435.16 62.4213 435.203 61.5253 435.203 60.672C435.288 59.7333 435.331 59.136 435.331 58.88C435.416 58.0267 435.971 57.6 436.995 57.6H442.883C447.32 57.6 450.52 58.5387 452.483 60.416C454.531 62.208 455.555 65.664 455.555 70.784C455.555 71.4667 455.512 73.0453 455.427 75.52C455.342 77.9093 455.171 80.8107 454.915 84.224C454.744 87.6373 454.488 91.4347 454.147 95.616C453.806 99.712 453.422 103.851 452.995 108.032C452.568 112.213 452.099 116.224 451.587 120.064C451.075 123.904 450.52 127.275 449.923 130.176C449.326 133.077 448.302 135.893 446.851 138.624C445.4 141.355 443.352 143.787 440.707 145.92C438.062 148.053 434.648 149.76 430.467 151.04C426.371 152.32 421.336 152.96 415.363 152.96C410.84 152.96 406.872 152.533 403.459 151.68C400.131 150.827 397.358 149.675 395.139 148.224C392.92 146.859 391.214 145.28 390.019 143.488C388.91 141.696 388.355 139.904 388.355 138.112C388.355 136.491 388.696 135.083 389.379 133.888C390.062 132.693 390.958 131.712 392.067 130.944C393.176 130.176 394.371 129.579 395.651 129.152C397.016 128.811 398.296 128.64 399.491 128.64C400.942 128.64 402.008 129.067 402.691 129.92C403.374 130.773 404.142 131.712 404.995 132.736C405.848 133.845 407.043 134.827 408.579 135.68C410.115 136.533 412.504 136.96 415.747 136.96C421.379 136.96 425.304 134.869 427.523 130.688C429.827 126.592 430.979 120.661 430.979 112.896ZM420.227 107.136C423.299 107.136 425.688 106.411 427.395 104.96C429.187 103.509 430.552 101.76 431.491 99.712C432.43 97.664 433.027 95.5307 433.283 93.312C433.539 91.0933 433.667 89.1733 433.667 87.552C433.667 82.432 432.856 78.8053 431.235 76.672C429.699 74.4533 427.352 73.344 424.195 73.344C421.038 73.344 418.563 74.1973 416.771 75.904C414.979 77.6107 413.614 79.6587 412.675 82.048C411.822 84.352 411.267 86.6987 411.011 89.088C410.755 91.392 410.627 93.184 410.627 94.464C410.627 98.7307 411.352 101.931 412.803 104.064C414.254 106.112 416.728 107.136 420.227 107.136ZM480.057 128C477.412 128 475.236 127.744 473.529 127.232C471.908 126.635 470.585 125.824 469.561 124.8C468.622 123.776 467.94 122.539 467.513 121.088C467.172 119.552 467.001 117.803 467.001 115.84C467.001 114.56 467.044 112.768 467.129 110.464C467.3 108.075 467.556 104.832 467.897 100.736C468.238 96.5547 468.622 91.3067 469.049 84.992C469.561 78.592 470.158 70.6987 470.841 61.312C470.926 59.4347 471.14 58.3253 471.481 57.984C471.737 57.728 472.42 57.6 473.529 57.6H478.521C481.166 57.6 483.3 57.856 484.921 58.368C486.628 58.88 487.95 59.648 488.889 60.672C489.913 61.696 490.596 62.9333 490.937 64.384C491.364 65.8347 491.577 67.456 491.577 69.248C491.577 70.528 491.492 72.448 491.321 75.008C491.15 77.568 490.894 81.0667 490.553 85.504C490.297 89.856 489.913 95.3173 489.401 101.888C488.889 108.373 488.249 116.224 487.481 125.44C487.396 126.464 487.182 127.147 486.841 127.488C486.5 127.829 485.774 128 484.665 128H480.057ZM470.969 42.496C470.969 39.0827 472.206 36.3947 474.681 34.432C477.156 32.4693 480.484 31.488 484.665 31.488C488.334 31.488 490.98 32.256 492.601 33.792C494.308 35.2427 495.161 37.2053 495.161 39.68C495.161 42.8373 493.966 45.4827 491.577 47.616C489.273 49.664 485.86 50.688 481.337 50.688C474.425 50.688 470.969 47.9573 470.969 42.496ZM546.521 116.736C546.521 114.859 546.649 112.427 546.905 109.44C547.246 106.368 547.545 103.168 547.801 99.84C548.142 96.4267 548.441 93.1413 548.697 89.984C549.038 86.8267 549.209 84.1813 549.209 82.048C549.209 79.8293 548.654 77.8667 547.545 76.16C546.521 74.368 544.473 73.472 541.401 73.472C538.414 73.472 535.94 74.1973 533.977 75.648C532.014 77.0987 530.35 79.744 528.985 83.584C527.705 87.424 526.638 92.7147 525.785 99.456C524.932 106.197 524.121 114.859 523.353 125.44C523.268 126.464 523.054 127.147 522.713 127.488C522.372 127.829 521.646 128 520.537 128H515.929C513.284 128 511.108 127.744 509.401 127.232C507.78 126.635 506.457 125.824 505.433 124.8C504.494 123.776 503.812 122.539 503.385 121.088C503.044 119.552 502.873 117.803 502.873 115.84C502.873 114.56 502.916 112.768 503.001 110.464C503.172 108.075 503.428 104.832 503.769 100.736C504.11 96.5547 504.494 91.3067 504.921 84.992C505.433 78.592 506.03 70.6987 506.713 61.312C506.798 59.4347 507.012 58.3253 507.353 57.984C507.609 57.728 508.292 57.6 509.401 57.6H514.393C516.953 57.6 519.044 57.8987 520.665 58.496C522.372 59.0933 523.737 59.904 524.761 60.928C525.785 61.8667 526.51 63.0187 526.937 64.384C527.364 65.664 527.62 66.9867 527.705 68.352C530.35 63.8293 533.38 60.7147 536.793 59.008C540.206 57.216 544.473 56.32 549.593 56.32C553.177 56.32 556.292 56.704 558.937 57.472C561.582 58.24 563.758 59.5627 565.465 61.44C567.257 63.232 568.58 65.6213 569.433 68.608C570.286 71.5093 570.713 75.136 570.713 79.488C570.713 80.8533 570.628 82.816 570.457 85.376C570.286 87.936 570.073 90.752 569.817 93.824C569.561 96.8107 569.262 99.968 568.921 103.296C568.665 106.539 568.409 109.568 568.153 112.384C567.897 115.2 567.684 117.675 567.513 119.808C567.342 121.941 567.257 123.349 567.257 124.032C567.257 125.909 567.044 127.061 566.617 127.488C566.19 127.829 565.252 128 563.801 128H559.705C556.974 128 554.756 127.744 553.049 127.232C551.342 126.72 550.02 125.995 549.081 125.056C548.142 124.117 547.46 122.965 547.033 121.6C546.692 120.149 546.521 118.528 546.521 116.736ZM623.723 37.12C625.856 37.12 627.606 37.5467 628.971 38.4C630.422 39.168 631.616 40.2347 632.555 41.6C633.494 42.88 634.262 44.3733 634.859 46.08C635.456 47.7867 635.968 49.536 636.395 51.328C639.808 65.152 642.624 76.544 644.843 85.504C647.062 94.464 648.811 101.717 650.091 107.264C651.371 112.725 652.267 116.779 652.779 119.424C653.291 122.069 653.547 123.904 653.547 124.928C653.547 126.123 653.248 126.933 652.651 127.36C652.139 127.787 651.286 128 650.091 128H643.563C639.894 128 636.95 127.573 634.731 126.72C632.598 125.781 630.934 124.459 629.739 122.752C628.63 121.045 627.819 118.997 627.307 116.608C626.795 114.133 626.368 111.36 626.027 108.288H603.755L599.531 125.952C599.104 127.317 598.123 128 596.587 128H589.803C588.438 128 587.03 127.872 585.579 127.616C584.128 127.275 582.806 126.763 581.611 126.08C580.502 125.397 579.563 124.544 578.795 123.52C578.027 122.411 577.643 121.088 577.643 119.552C577.643 117.675 578.24 114.603 579.435 110.336C580.63 106.069 582.123 101.248 583.915 95.872C585.792 90.4107 587.84 84.736 590.059 78.848C592.363 72.8747 594.582 67.2427 596.715 61.952C598.848 56.6613 600.768 52.0107 602.475 48C604.267 43.9893 605.632 41.1733 606.571 39.552C607.254 38.3573 607.851 37.6747 608.363 37.504C608.96 37.248 610.027 37.12 611.563 37.12H623.723ZM608.363 89.728H623.083L617.707 55.936L608.363 89.728ZM675.965 128C671.186 128 667.773 127.061 665.725 125.184C663.677 123.307 662.653 120.619 662.653 117.12C662.653 115.413 662.781 112.512 663.037 108.416C663.293 104.235 663.634 99.4987 664.061 94.208C664.488 88.9173 664.914 83.328 665.341 77.44C665.768 71.552 666.194 66.0053 666.621 60.8C667.048 55.5947 667.389 51.0293 667.645 47.104C667.901 43.1787 668.029 40.4907 668.029 39.04C668.029 37.76 668.712 37.12 670.077 37.12H677.117C682.322 37.12 685.821 38.2293 687.613 40.448C689.405 42.6667 690.301 45.952 690.301 50.304C690.301 50.7307 690.216 52.096 690.045 54.4C689.96 56.704 689.789 59.6053 689.533 63.104C689.277 66.6027 688.978 70.528 688.637 74.88C688.381 79.1467 688.082 83.5413 687.741 88.064C687.485 92.5867 687.186 97.024 686.845 101.376C686.589 105.643 686.333 109.525 686.077 113.024C685.821 116.523 685.608 119.467 685.437 121.856C685.266 124.16 685.138 125.568 685.053 126.08C684.968 126.763 684.797 127.275 684.541 127.616C684.285 127.872 683.773 128 683.005 128H675.965Z" fill="#15F4EE"/>
<defs>
<filter id="filter0_d_110_44" x="8.5332" y="87.1691" width="123.069" height="49.8689" filterUnits="userSpaceOnUse" color-interpolation-filters="sRGB">
<feFlood flood-opacity="0" result="BackgroundImageFix"/>
<feColorMatrix in="SourceAlpha" type="matrix" values="0 0 0 0 0 0 0 0 0 0 0 0 0 0 0 0 0 0 127 0" result="hardAlpha"/>
<feOffset dy="0.327344"/>
<feGaussianBlur stdDeviation="0.818361"/>
<feComposite in2="hardAlpha" operator="out"/>
<feColorMatrix type="matrix" values="0 0 0 0 0 0 0 0 0 0 0 0 0 0 0 0 0 0 0.45 0"/>
<feBlend mode="normal" in2="BackgroundImageFix" result="effect1_dropShadow_110_44"/>
<feBlend mode="normal" in="SourceGraphic" in2="effect1_dropShadow_110_44" result="shape"/>
</filter>
<filter id="filter1_f_110_44" x="9.91553" y="88.2241" width="120.305" height="47.1042" filterUnits="userSpaceOnUse" color-interpolation-filters="sRGB">
<feFlood flood-opacity="0" result="BackgroundImageFix"/>
<feBlend mode="normal" in="SourceGraphic" in2="BackgroundImageFix" result="shape"/>
<feGaussianBlur stdDeviation="0.127195" result="effect1_foregroundBlur_110_44"/>
</filter>
<filter id="filter2_d_110_44" x="118.282" y="5.85749" width="4.08727" height="4.08751" filterUnits="userSpaceOnUse" color-interpolation-filters="sRGB">
<feFlood flood-opacity="0" result="BackgroundImageFix"/>
<feColorMatrix in="SourceAlpha" type="matrix" values="0 0 0 0 0 0 0 0 0 0 0 0 0 0 0 0 0 0 127 0" result="hardAlpha"/>
<feOffset/>
<feGaussianBlur stdDeviation="0.170743"/>
<feComposite in2="hardAlpha" operator="out"/>
<feColorMatrix type="matrix" values="0 0 0 0 0.592157 0 0 0 0 0.392157 0 0 0 0 1 0 0 0 1 0"/>
<feBlend mode="normal" in2="BackgroundImageFix" result="effect1_dropShadow_110_44"/>
<feBlend mode="normal" in="SourceGraphic" in2="effect1_dropShadow_110_44" result="shape"/>
</filter>
<filter id="filter3_d_110_44" x="150.499" y="37.4678" width="2.11901" height="2.11925" filterUnits="userSpaceOnUse" color-interpolation-filters="sRGB">
<feFlood flood-opacity="0" result="BackgroundImageFix"/>
<feColorMatrix in="SourceAlpha" type="matrix" values="0 0 0 0 0 0 0 0 0 0 0 0 0 0 0 0 0 0 127 0" result="hardAlpha"/>
<feOffset/>
<feGaussianBlur stdDeviation="0.170743"/>
<feComposite in2="hardAlpha" operator="out"/>
<feColorMatrix type="matrix" values="0 0 0 0 0.592157 0 0 0 0 0.392157 0 0 0 0 1 0 0 0 1 0"/>
<feBlend mode="normal" in2="BackgroundImageFix" result="effect1_dropShadow_110_44"/>
<feBlend mode="normal" in="SourceGraphic" in2="effect1_dropShadow_110_44" result="shape"/>
</filter>
<filter id="filter4_d_110_44" x="30.3665" y="52.7086" width="5.49787" height="5.49787" filterUnits="userSpaceOnUse" color-interpolation-filters="sRGB">
<feFlood flood-opacity="0" result="BackgroundImageFix"/>
<feColorMatrix in="SourceAlpha" type="matrix" values="0 0 0 0 0 0 0 0 0 0 0 0 0 0 0 0 0 0 127 0" result="hardAlpha"/>
<feOffset/>
<feGaussianBlur stdDeviation="0.442949"/>
<feComposite in2="hardAlpha" operator="out"/>
<feColorMatrix type="matrix" values="0 0 0 0 0.592157 0 0 0 0 0.392157 0 0 0 0 1 0 0 0 1 0"/>
<feBlend mode="normal" in2="BackgroundImageFix" result="effect1_dropShadow_110_44"/>
<feBlend mode="normal" in="SourceGraphic" in2="effect1_dropShadow_110_44" result="shape"/>
</filter>
<filter id="filter5_d_110_44" x="11.1781" y="107.277" width="5.49787" height="5.49787" filterUnits="userSpaceOnUse" color-interpolation-filters="sRGB">
<feFlood flood-opacity="0" result="BackgroundImageFix"/>
<feColorMatrix in="SourceAlpha" type="matrix" values="0 0 0 0 0 0 0 0 0 0 0 0 0 0 0 0 0 0 127 0" result="hardAlpha"/>
<feOffset/>
<feGaussianBlur stdDeviation="0.442949"/>
<feComposite in2="hardAlpha" operator="out"/>
<feColorMatrix type="matrix" values="0 0 0 0 0.592157 0 0 0 0 0.392157 0 0 0 0 1 0 0 0 1 0"/>
<feBlend mode="normal" in2="BackgroundImageFix" result="effect1_dropShadow_110_44"/>
<feBlend mode="normal" in="SourceGraphic" in2="effect1_dropShadow_110_44" result="shape"/>
</filter>
<filter id="filter6_d_110_44" x="121.482" y="122.257" width="5.49787" height="5.49787" filterUnits="userSpaceOnUse" color-interpolation-filters="sRGB">
<feFlood flood-opacity="0" result="BackgroundImageFix"/>
<feColorMatrix in="SourceAlpha" type="matrix" values="0 0 0 0 0 0 0 0 0 0 0 0 0 0 0 0 0 0 127 0" result="hardAlpha"/>
<feOffset/>
<feGaussianBlur stdDeviation="0.442949"/>
<feComposite in2="hardAlpha" operator="out"/>
<feColorMatrix type="matrix" values="0 0 0 0 0.592157 0 0 0 0 0.392157 0 0 0 0 1 0 0 0 1 0"/>
<feBlend mode="normal" in2="BackgroundImageFix" result="effect1_dropShadow_110_44"/>
<feBlend mode="normal" in="SourceGraphic" in2="effect1_dropShadow_110_44" result="shape"/>
</filter>
<filter id="filter7_d_110_44" x="35.9251" y="93.5447" width="2.11901" height="2.11925" filterUnits="userSpaceOnUse" color-interpolation-filters="sRGB">
<feFlood flood-opacity="0" result="BackgroundImageFix"/>
<feColorMatrix in="SourceAlpha" type="matrix" values="0 0 0 0 0 0 0 0 0 0 0 0 0 0 0 0 0 0 127 0" result="hardAlpha"/>
<feOffset/>
<feGaussianBlur stdDeviation="0.170743"/>
<feComposite in2="hardAlpha" operator="out"/>
<feColorMatrix type="matrix" values="0 0 0 0 0.592157 0 0 0 0 0.392157 0 0 0 0 1 0 0 0 1 0"/>
<feBlend mode="normal" in2="BackgroundImageFix" result="effect1_dropShadow_110_44"/>
<feBlend mode="normal" in="SourceGraphic" in2="effect1_dropShadow_110_44" result="shape"/>
</filter>
<filter id="filter8_d_110_44" x="62.8335" y="34.5574" width="3.33008" height="3.33032" filterUnits="userSpaceOnUse" color-interpolation-filters="sRGB">
<feFlood flood-opacity="0" result="BackgroundImageFix"/>
<feColorMatrix in="SourceAlpha" type="matrix" values="0 0 0 0 0 0 0 0 0 0 0 0 0 0 0 0 0 0 127 0" result="hardAlpha"/>
<feOffset/>
<feGaussianBlur stdDeviation="0.268311"/>
<feComposite in2="hardAlpha" operator="out"/>
<feColorMatrix type="matrix" values="0 0 0 0 0.592157 0 0 0 0 0.392157 0 0 0 0 1 0 0 0 1 0"/>
<feBlend mode="normal" in2="BackgroundImageFix" result="effect1_dropShadow_110_44"/>
<feBlend mode="normal" in="SourceGraphic" in2="effect1_dropShadow_110_44" result="shape"/>
</filter>
<filter id="filter9_d_110_44" x="108.755" y="46.421" width="19.9665" height="19.9667" filterUnits="userSpaceOnUse" color-interpolation-filters="sRGB">
<feFlood flood-opacity="0" result="BackgroundImageFix"/>
<feColorMatrix in="SourceAlpha" type="matrix" values="0 0 0 0 0 0 0 0 0 0 0 0 0 0 0 0 0 0 127 0" result="hardAlpha"/>
<feOffset dy="0.554677"/>
<feGaussianBlur stdDeviation="1.06523"/>
<feComposite in2="hardAlpha" operator="out"/>
<feColorMatrix type="matrix" values="0 0 0 0 0.296824 0 0 0 0 0.244184 0 0 0 0 0.404167 0 0 0 0.6 0"/>
<feBlend mode="normal" in2="BackgroundImageFix" result="effect1_dropShadow_110_44"/>
<feBlend mode="normal" in="SourceGraphic" in2="effect1_dropShadow_110_44" result="shape"/>
</filter>
<filter id="filter10_d_110_44" x="14.3842" y="76.209" width="13.5422" height="13.5426" filterUnits="userSpaceOnUse" color-interpolation-filters="sRGB">
<feFlood flood-opacity="0" result="BackgroundImageFix"/>
<feColorMatrix in="SourceAlpha" type="matrix" values="0 0 0 0 0 0 0 0 0 0 0 0 0 0 0 0 0 0 127 0" result="hardAlpha"/>
<feOffset dy="0.281606"/>
<feGaussianBlur stdDeviation="0.540812"/>
<feComposite in2="hardAlpha" operator="out"/>
<feColorMatrix type="matrix" values="0 0 0 0 0.220722 0 0 0 0 0.210451 0 0 0 0 0.241667 0 0 0 0.6 0"/>
<feBlend mode="normal" in2="BackgroundImageFix" result="effect1_dropShadow_110_44"/>
<feBlend mode="normal" in="SourceGraphic" in2="effect1_dropShadow_110_44" result="shape"/>
</filter>
<linearGradient id="paint0_linear_110_44" x1="16.1626" y1="89.0462" x2="125.637" y2="91.3449" gradientUnits="userSpaceOnUse">
<stop stop-color="#15F4EE"/>
<stop offset="1" stop-color="#0D9AFF"/>
</linearGradient>
<linearGradient id="paint1_linear_110_44" x1="12.4597" y1="140.106" x2="7.88916" y2="126.697" gradientUnits="userSpaceOnUse">
<stop stop-color="#15F4EE"/>
<stop offset="1" stop-color="#3F5FFF" stop-opacity="0"/>
</linearGradient>
<linearGradient id="paint2_linear_110_44" x1="12.4597" y1="140.106" x2="7.88916" y2="126.697" gradientUnits="userSpaceOnUse">
<stop stop-color="#15F4EE"/>
<stop offset="1" stop-color="#199FFF" stop-opacity="0.13"/>
</linearGradient>
<linearGradient id="paint3_linear_110_44" x1="118.724" y1="7.7251" x2="122.109" y2="7.79618" gradientUnits="userSpaceOnUse">
<stop stop-color="#15F4EE"/>
<stop offset="1" stop-color="#0D9AFF"/>
</linearGradient>
<linearGradient id="paint4_linear_110_44" x1="150.883" y1="38.4532" x2="152.311" y2="38.4832" gradientUnits="userSpaceOnUse">
<stop stop-color="#15F4EE"/>
<stop offset="1" stop-color="#0D9AFF"/>
</linearGradient>
<linearGradient id="paint5_linear_110_44" x1="31.3628" y1="55.2648" x2="35.067" y2="55.3428" gradientUnits="userSpaceOnUse">
<stop stop-color="#15F4EE"/>
<stop offset="1" stop-color="#0D9AFF"/>
</linearGradient>
<linearGradient id="paint6_linear_110_44" x1="12.1743" y1="109.833" x2="15.8786" y2="109.911" gradientUnits="userSpaceOnUse">
<stop stop-color="#15F4EE"/>
<stop offset="1" stop-color="#0D9AFF"/>
</linearGradient>
<linearGradient id="paint7_linear_110_44" x1="122.478" y1="124.813" x2="126.183" y2="124.891" gradientUnits="userSpaceOnUse">
<stop stop-color="#15F4EE"/>
<stop offset="1" stop-color="#0D9AFF"/>
</linearGradient>
<linearGradient id="paint8_linear_110_44" x1="36.3092" y1="94.53" x2="37.737" y2="94.5603" gradientUnits="userSpaceOnUse">
<stop stop-color="#15F4EE"/>
<stop offset="1" stop-color="#0D9AFF"/>
</linearGradient>
<linearGradient id="paint9_linear_110_44" x1="63.4369" y1="36.1058" x2="65.6805" y2="36.1529" gradientUnits="userSpaceOnUse">
<stop stop-color="#15F4EE"/>
<stop offset="1" stop-color="#0D9AFF"/>
</linearGradient>
<linearGradient id="paint10_linear_110_44" x1="126.232" y1="56.0957" x2="110.591" y2="54.1884" gradientUnits="userSpaceOnUse">
<stop stop-color="#15F4EE"/>
<stop offset="1" stop-color="#0D9AFF"/>
</linearGradient>
<linearGradient id="paint11_linear_110_44" x1="26.411" y1="81.305" x2="15.1509" y2="83.2462" gradientUnits="userSpaceOnUse">
<stop stop-color="#15F4EE"/>
<stop offset="1" stop-color="#0D9AFF"/>
</linearGradient>
</defs>
</svg>
